<?xml version="1.0" encoding="UTF-8"?>
<svg version="1.1" xmlns="http://www.w3.org/2000/svg" width="520" height="480">
<path d="M0 0 C0.71738342 -0.00175232 1.43476685 -0.00350464 2.17388916 -0.00531006 C4.5456382 -0.00971192 6.9173127 -0.00679643 9.2890625 -0.00341797 C10.93668634 -0.00409149 12.58431009 -0.00506191 14.23193359 -0.00631714 C17.68523098 -0.00779185 21.1385025 -0.0056468 24.59179688 -0.00097656 C29.02051858 0.00472059 33.44917969 0.00144038 37.87789917 -0.00454903 C41.28019671 -0.00816073 44.68247986 -0.00701324 48.08477783 -0.00442123 C49.71787524 -0.00375365 51.35097394 -0.00457451 52.98406982 -0.00690079 C55.26545682 -0.00943727 57.54674535 -0.00557262 59.828125 0 C61.7764624 0.00119339 61.7764624 0.00119339 63.76416016 0.00241089 C66.9140625 0.12939453 66.9140625 0.12939453 69.9140625 1.12939453 C74.52132561 7.1229138 77.61833666 14.41400794 80.95410156 21.17480469 C83.28735345 25.90235929 85.73460436 30.54602203 88.28515625 35.16064453 C92.96442932 43.68881607 97.53542723 52.28653491 101.8515625 61.00439453 C106.45159051 70.29315633 111.36270619 79.42424171 116.21386719 88.58349609 C117.49030802 90.99390486 118.76526307 93.40508889 120.0390625 95.81689453 C120.66288818 96.99783691 120.66288818 96.99783691 121.29931641 98.20263672 C124.29668881 103.89988729 127.17146476 109.65069912 130.01611328 115.42529297 C132.16328354 119.74128925 134.47845248 123.90645563 136.9140625 128.06689453 C140.30399339 133.88483854 143.17809708 139.83419302 145.984375 145.95117188 C148.41235568 151.19394389 151.17375644 156.1293631 154.15234375 161.08251953 C156.11089231 164.46980972 157.87375877 167.93367696 159.6015625 171.44189453 C162.84788617 178.0304687 166.19538177 184.55947365 169.6015625 191.06689453 C170.1076001 192.03377197 170.6136377 193.00064941 171.13500977 193.99682617 C172.18769306 196.00771908 173.24051129 198.01854137 174.29345703 200.02929688 C177.05252476 205.3071881 179.79453907 210.59393051 182.5390625 215.87939453 C186.44086749 223.38722905 190.35161634 230.89018328 194.2890625 238.37939453 C194.89137695 239.52758667 194.89137695 239.52758667 195.50585938 240.69897461 C197.33123927 244.1686391 199.17695875 247.62289271 201.0859375 251.04736328 C201.41803223 251.64709961 201.75012695 252.24683594 202.09228516 252.86474609 C202.96565693 254.43492351 203.84954253 255.99924058 204.734375 257.56298828 C205.9140625 260.12939453 205.9140625 260.12939453 205.9140625 264.12939453 C206.5740625 264.12939453 207.2340625 264.12939453 207.9140625 264.12939453 C212.32214214 272.37413609 216.70388828 280.624986 220.8515625 289.00439453 C224.97114178 297.31678546 229.29453354 305.51678548 233.63623047 313.71484375 C235.71425201 317.64140718 237.78287576 321.57290737 239.8515625 325.50439453 C240.26132324 326.28274658 240.67108398 327.06109863 241.09326172 327.86303711 C244.20781493 333.78117316 247.31234576 339.70452254 250.4140625 345.62939453 C253.5340308 351.58873675 256.65566967 357.54717641 259.78759766 363.50024414 C260.61376289 365.07086064 261.43897784 366.6419774 262.26318359 368.21362305 C264.32686156 372.14291573 266.4132243 376.05755744 268.5390625 379.95361328 C268.95913574 380.72930664 269.37920898 381.505 269.81201172 382.30419922 C270.60879315 383.77347306 271.4121439 385.23921029 272.22314453 386.70068359 C274.10959646 390.19220672 274.9140625 392.07306762 274.9140625 396.12939453 C259.45030261 396.24613256 243.98657563 396.33433583 228.52247906 396.38845539 C221.34239165 396.4142507 214.16257783 396.44942592 206.98266602 396.5065918 C200.72552541 396.55638695 194.46858289 396.58867591 188.21124965 396.59983701 C184.89707278 396.60636268 181.58359576 396.62433512 178.26956749 396.65804482 C174.5721874 396.69416921 170.87599402 396.69934657 167.1784668 396.69702148 C166.07651474 396.71499786 164.97456268 396.73297424 163.83921814 396.75149536 C161.10428331 396.73279839 158.59155788 396.68590731 155.9140625 396.12939453 C153.78649902 393.74647522 153.78649902 393.74647522 152.9140625 391.12939453 C152.51034424 390.3238916 152.10662598 389.51838867 151.69067383 388.68847656 C151.09935669 387.42559814 151.09935669 387.42559814 150.49609375 386.13720703 C150.05056152 385.19264648 149.6050293 384.24808594 149.14599609 383.27490234 C148.67758301 382.27813477 148.20916992 381.28136719 147.7265625 380.25439453 C144.55201395 373.54966431 141.34940641 366.88846158 137.7890625 360.37939453 C134.352572 354.06159298 131.25235056 347.62295766 128.20092773 341.11157227 C124.89252454 334.05397884 121.43155835 327.08551861 117.9140625 320.12939453 C113.80979319 312.00961972 109.7624179 303.87412168 105.9140625 295.62939453 C101.75756783 286.7256653 97.36112371 277.95166754 92.93017578 269.18212891 C88.98128873 261.35904754 85.13142726 253.50293996 81.4140625 245.56689453 C78.43517726 239.21316811 75.29346841 232.99510261 71.93579102 226.83447266 C68.80058807 221.03112743 65.99971057 215.08394665 63.20141602 209.11254883 C59.89273916 202.05456192 56.4285127 195.0875342 52.9140625 188.12939453 C51.24079745 184.79048944 49.57242188 181.44914059 47.90527344 178.10717773 C46.26782662 174.8271023 44.62265731 171.55151223 42.95703125 168.28564453 C37.85046725 158.24057396 37.85046725 158.24057396 36.2265625 153.69189453 C34.80525519 149.8340604 33.03505992 146.64001095 30.9140625 143.12939453 C28.06426496 146.4531584 26.17262434 149.42534669 24.6015625 153.50439453 C21.65789826 160.85013417 18.30399137 167.98274682 14.9140625 175.12939453 C14.55231934 175.89268066 14.19057617 176.6559668 13.81787109 177.44238281 C12.27346594 180.70088621 10.72888829 183.95930673 9.18286133 187.21704102 C6.5651389 192.7380048 3.99084426 198.27755821 1.4375 203.82861328 C-3.39364763 214.29609982 -8.30747331 224.70893986 -13.54296875 234.98095703 C-15.17399316 238.30907267 -16.62595788 241.72277541 -18.0859375 245.12939453 C-0.9259375 245.12939453 16.2340625 245.12939453 33.9140625 245.12939453 C45.32208062 266.80462896 45.32208062 266.80462896 50.0390625 276.81689453 C51.05756447 278.95931123 52.07709486 281.10123933 53.09765625 283.24267578 C53.82057861 284.75982178 53.82057861 284.75982178 54.55810547 286.30761719 C56.6613173 290.68444873 58.84424206 295.01930676 61.03637695 299.35205078 C64.09611401 305.42826075 66.98936611 311.5816412 69.8581543 317.75 C71.35257922 320.94240375 72.77959487 323.92754912 74.73828125 326.86767578 C75.9140625 329.12939453 75.9140625 329.12939453 74.9140625 334.12939453 C30.3640625 334.12939453 -14.1859375 334.12939453 -60.0859375 334.12939453 C-60.7459375 336.43939453 -61.4059375 338.74939453 -62.0859375 341.12939453 C-63.2689547 343.65044497 -64.47966148 346.1057228 -65.7734375 348.56689453 C-69.02087201 354.88205478 -71.98279474 361.26842529 -74.73901367 367.81274414 C-76.28207913 371.44197038 -78.01060775 374.77963694 -80.0859375 378.12939453 C-81.52385216 381.3973824 -82.90376254 384.68039766 -84.24609375 387.98876953 C-84.66761719 388.98392578 -85.08914062 389.97908203 -85.5234375 391.00439453 C-85.91402344 391.95056641 -86.30460937 392.89673828 -86.70703125 393.87158203 C-88.0859375 396.12939453 -88.0859375 396.12939453 -89.86681747 396.76536465 C-92.28192366 397.16154458 -94.52293276 397.23552769 -96.97076416 397.21168518 C-97.95230469 397.20464569 -98.93384521 397.1976062 -99.94512939 397.19035339 C-101.01543396 397.17740738 -102.08573853 397.16446136 -103.18847656 397.15112305 C-104.886474 397.13671173 -104.886474 397.13671173 -106.61877441 397.12200928 C-110.36310018 397.0890095 -114.10730964 397.04868063 -117.8515625 397.00830078 C-120.44659006 396.98400064 -123.04162193 396.96015703 -125.63665771 396.93675232 C-131.770613 396.88032618 -137.90450661 396.8192932 -144.03839469 396.75603098 C-151.02259722 396.68425587 -158.00685137 396.61836162 -164.99111605 396.55296052 C-179.35612318 396.41831395 -193.72105061 396.2762848 -208.0859375 396.12939453 C-206.59414637 391.50155757 -204.75008128 387.25554143 -202.5234375 382.94189453 C-199.47354068 376.94927457 -196.55436916 370.90996238 -193.7109375 364.81689453 C-189.1456856 355.0861941 -184.15700008 345.60384995 -179.0859375 336.12939453 C-171.6152689 322.13033147 -164.38262666 308.06174547 -157.6484375 293.69189453 C-154.41515544 286.79881828 -150.98925603 280.04280302 -147.39306641 273.33276367 C-142.34758994 263.91402751 -137.57043579 254.37369148 -133.08886719 244.67382812 C-130.37017206 238.79302848 -127.5706581 233.0915382 -124.2734375 227.50439453 C-119.04176598 218.58280145 -114.79202856 209.19419515 -110.38037109 199.84863281 C-107.68844034 194.1936489 -104.86114296 188.60666563 -102.03759766 183.01660156 C-100.71611139 180.39600412 -99.40429627 177.77061432 -98.09277344 175.14501953 C-97.09023033 173.13798852 -96.08613592 171.1317384 -95.08203125 169.12548828 C-93.75623047 166.47453376 -92.43641195 163.82072098 -91.12109375 161.16455078 C-87.76959954 154.40915627 -84.34314411 147.70972819 -80.7734375 141.06689453 C-77.19225994 134.38955542 -73.88588498 127.60436653 -70.6484375 120.75439453 C-66.45829489 111.89001255 -62.02868442 103.19315493 -57.421875 94.53955078 C-52.22637255 84.77192108 -47.40311003 74.83421325 -42.7109375 64.81689453 C-37.56597407 53.84846158 -32.11200906 42.97474639 -25.98046875 32.52001953 C-24.08426647 29.1264039 -22.59080296 25.71128785 -21.0859375 22.12939453 C-19.79264642 19.4007668 -18.4424203 16.70206146 -17.0859375 14.00439453 C-16.74304688 13.31474609 -16.40015625 12.62509766 -16.046875 11.91455078 C-10.08130241 0.00617497 -10.08130241 0.00617497 0 0 Z " fill="#FBFCFC" transform="translate(226.0859375,42.87060546875)"/>
<path d="M0 0 C1.91360572 1.91360572 2.93311434 3.4441112 4.1875 5.8125 C4.55230469 6.47894531 4.91710937 7.14539063 5.29296875 7.83203125 C6 10 6 10 5 15 C-8.53 15 -22.06 15 -36 15 C-36 14.67 -36 14.34 -36 14 C-35.16339844 13.97494385 -34.32679688 13.9498877 -33.46484375 13.92407227 C-30.32623274 13.82827164 -27.18775119 13.72908345 -24.04931641 13.62768555 C-22.03686399 13.56367259 -20.0242912 13.5034803 -18.01171875 13.44335938 C-11.61414496 13.2343934 -5.33128859 12.96099916 1 12 C1.0984702 7.86425173 0.77403558 4.06368679 0 0 Z " fill="#5F7384" transform="translate(296,362)"/>
<path d="M0 0 C1.125 3.75 1.125 3.75 0 6 C0.66 6.33 1.32 6.66 2 7 C0.87994369 10.36016893 -0.37211797 11.69064913 -3 14 C-3.66 14 -4.32 14 -5 14 C-4.9175 14.9075 -4.835 15.815 -4.75 16.75 C-5 20 -5 20 -6.9375 22.25 C-7.618125 22.8275 -8.29875 23.405 -9 24 C-9.33 24.66 -9.66 25.32 -10 26 C-10.66 26 -11.32 26 -12 26 C-10.49234535 20.99018924 -8.37432101 16.51180806 -6 11.875 C-5.64421875 11.17246094 -5.2884375 10.46992188 -4.921875 9.74609375 C-4.2438225 8.40769907 -3.56423258 7.07008172 -2.8828125 5.73339844 C-1.91197475 3.8271628 -0.95271527 1.91535466 0 0 Z " fill="#BFC8D0" transform="translate(45,383)"/>
<path d="M0 0 C1.38065685 2.76131369 0.80762437 4.03871064 0 7 C-0.96761608 9.01586684 -1.96567096 11.01753602 -3 13 C-3.33 13.99 -3.66 14.98 -4 16 C-4.66 16 -5.32 16 -6 16 C-6 16.99 -6 17.98 -6 19 C-8 20.6875 -8 20.6875 -10 22 C-9.36042408 19.11342911 -8.449403 16.59695589 -7.1875 13.92578125 C-6.83429688 13.17619141 -6.48109375 12.42660156 -6.1171875 11.65429688 C-5.56417969 10.49510742 -5.56417969 10.49510742 -5 9.3125 C-4.63132812 8.52810547 -4.26265625 7.74371094 -3.8828125 6.93554688 C-1.13585283 1.13585283 -1.13585283 1.13585283 0 0 Z " fill="#A1ACBE" transform="translate(85,304)"/>
<path d="M0 0 C1 4 1 4 0 6 C0.66 6.33 1.32 6.66 2 7 C1.34 7 0.68 7 0 7 C0 7.99 0 8.98 0 10 C-0.66 10 -1.32 10 -2 10 C-2.12375 10.763125 -2.2475 11.52625 -2.375 12.3125 C-3 15 -3 15 -5 18 C-5.66 18 -6.32 18 -7 18 C-7 18.66 -7 19.32 -7 20 C-7.66 19.67 -8.32 19.34 -9 19 C-6.03 12.73 -3.06 6.46 0 0 Z " fill="#B2BBCC" transform="translate(148,178)"/>
<path d="M0 0 C0.33 0 0.66 0 1 0 C1.54468975 5.99158729 -1.32491055 10.81701418 -4 16 C-4.53625 17.0725 -5.0725 18.145 -5.625 19.25 C-6.07875 20.1575 -6.5325 21.065 -7 22 C-7.99 22 -8.98 22 -10 22 C-8.4719611 16.90117545 -6.28963144 12.34334341 -3.875 7.625 C-3.50246094 6.88894531 -3.12992188 6.15289062 -2.74609375 5.39453125 C-1.8343878 3.59449642 -0.91770068 1.79698598 0 0 Z " fill="#B2C0CE" transform="translate(28,417)"/>
<path d="M0 0 C0.66 1.32 1.32 2.64 2 4 C1.525625 4.433125 1.05125 4.86625 0.5625 5.3125 C-1.23686957 7.02309613 -1.23686957 7.02309613 -2 10 C-1.34 10.33 -0.68 10.66 0 11 C-2.14072301 13.35479531 -4.1394109 14.64062915 -7 16 C-4.87594923 10.5443163 -2.72823857 5.18365329 0 0 Z " fill="#ABB6C2" transform="translate(58,357)"/>
<path d="M0 0 C0.68707555 2.49064888 1 4.37886292 1 7 C0.01 7.495 0.01 7.495 -1 8 C-1.28875 8.969375 -1.5775 9.93875 -1.875 10.9375 C-3 14 -3 14 -5.125 15.375 C-5.74375 15.58125 -6.3625 15.7875 -7 16 C-5.35433477 10.31497465 -2.70967216 5.23318364 0 0 Z " fill="#94A0AF" transform="translate(158,158)"/>
<path d="M0 0 C0.33 0 0.66 0 1 0 C1.49304175 7.39562624 1.49304175 7.39562624 -0.9375 10.375 C-1.618125 10.91125 -2.29875 11.4475 -3 12 C-3.33 12.66 -3.66 13.32 -4 14 C-4.66 14 -5.32 14 -6 14 C-4.50829734 9.0276578 -2.39542583 4.58154261 0 0 Z " fill="#A8B4C3" transform="translate(39,395)"/>
<path d="M0 0 C0.99 0 1.98 0 3 0 C3.66 2.97 4.32 5.94 5 9 C5.66 9 6.32 9 7 9 C7.66 11.97 8.32 14.94 9 18 C6.44624385 14.82505993 4.62552847 11.51896339 2.8125 7.875 C2.28269531 6.82054687 1.75289063 5.76609375 1.20703125 4.6796875 C0 2 0 2 0 0 Z " fill="#7D839A" transform="translate(327,327)"/>
<path d="M0 0 C0.97591583 3.38317487 0.85856655 5.5657338 0 9 C-0.66 9 -1.32 9 -2 9 C-2.33 10.65 -2.66 12.3 -3 14 C-3.99 14.33 -4.98 14.66 -6 15 C-4.64475824 9.57903298 -2.63365987 4.9221313 0 0 Z " fill="#A4B0BD" transform="translate(92,289)"/>
<path d="M0 0 C1.0546875 1.859375 1.0546875 1.859375 2 4 C1.125 6.25 1.125 6.25 0 8 C-0.66 8 -1.32 8 -2 8 C-2.28875 8.804375 -2.5775 9.60875 -2.875 10.4375 C-4 13 -4 13 -6 14 C-4.16508812 9.25981099 -2.08058541 4.63586749 0 0 Z " fill="#A2AEC0" transform="translate(131,212)"/>
<path d="M0 0 C2.78752362 1.39376181 3.30431115 3.17508558 4.6875 5.9375 C5.14511719 6.83339844 5.60273438 7.72929687 6.07421875 8.65234375 C6.37972656 9.42707031 6.68523437 10.20179688 7 11 C6.67 11.66 6.34 12.32 6 13 C5.38125 12.34 4.7625 11.68 4.125 11 C2.24362573 8.7715451 2.24362573 8.7715451 0 9 C0 6.03 0 3.06 0 0 Z " fill="#97A2B5" transform="translate(378,202)"/>
<path d="M0 0 C0.66 1.32 1.32 2.64 2 4 C-1.625 9.875 -1.625 9.875 -5 11 C-3.55049545 7.2089881 -1.84827434 3.6125362 0 0 Z " fill="#A1ADC1" transform="translate(169,137)"/>
<path d="M0 0 C1.32 0 2.64 0 4 0 C2.81819916 5.02265357 1.55007718 8.0949151 -2 12 C-2.33 10.68 -2.66 9.36 -3 8 C-2.01 7.67 -1.02 7.34 0 7 C1.22520264 3.99152582 1.22520264 3.99152582 2 1 C1.34 0.67 0.68 0.34 0 0 Z " fill="#9BA2B5" transform="translate(158,386)"/>
<path d="M0 0 C2.5 1.1875 2.5 1.1875 5 3 C5.25 5.4375 5.25 5.4375 5 8 C5.29044914 9.34332728 5.60955794 10.68225804 6 12 C2.44992282 8.0949151 1.18180084 5.02265357 0 0 Z " fill="#9FA7BD" transform="translate(358,389)"/>
<path d="M0 0 C1 2 1 2 0.375 4.8125 C-1.18131396 8.42031873 -3.09336178 10.3993237 -6 13 C-4.58707905 8.1725201 -2.57025846 4.2837641 0 0 Z " fill="#939EAC" transform="translate(74,326)"/>
<path d="M0 0 C1.10844919 3.32534757 0.84454356 5.62182575 0 9 C-1.32 9.33 -2.64 9.66 -4 10 C-2.8905928 6.51329166 -1.73662334 3.22515763 0 0 Z " fill="#A4ADD4" transform="translate(118,238)"/>
<path d="M0 0 C1 2 1 2 0.1875 4.875 C-0.75524181 7.3558995 -1.7442206 9.66783825 -3 12 C-3.66 12 -4.32 12 -5 12 C-3.68938409 7.76570244 -2.05643741 3.92592596 0 0 Z " fill="#8C94A9" transform="translate(124,226)"/>
<path d="M0 0 C2.50037734 2.17424117 3.43628586 3.73045798 4 7 C1 6 1 6 -2 4 C-1.34 2.68 -0.68 1.36 0 0 Z " fill="#BDC6D4" transform="translate(468,375)"/>
<path d="M0 0 C2.97069541 2.54631035 4.4775751 5.42230149 6 9 C5.67 9.66 5.34 10.32 5 11 C4.731875 10.360625 4.46375 9.72125 4.1875 9.0625 C3.11332248 6.66868314 3.11332248 6.66868314 0 6 C0 4.02 0 2.04 0 0 Z " fill="#97A0B7" transform="translate(327,105)"/>
<path d="M0 0 C0.99 0.495 0.99 0.495 2 1 C2.73075648 3.3140622 3.40138258 5.64828869 4 8 C3.01 8 2.02 8 1 8 C-0.35439668 5.29120665 -0.06501451 2.99066732 0 0 Z " fill="#A0ACBB" transform="translate(491,418)"/>
<path d="M0 0 C1 3 1 3 0.22265625 5.04296875 C-0.16019531 5.75066406 -0.54304687 6.45835937 -0.9375 7.1875 C-1.31777344 7.90292969 -1.69804687 8.61835938 -2.08984375 9.35546875 C-2.54037109 10.16951172 -2.54037109 10.16951172 -3 11 C-3.33 11 -3.66 11 -4 11 C-4 9.02 -4 7.04 -4 5 C-3.01 4.67 -2.02 4.34 -1 4 C-0.26676204 1.98491642 -0.26676204 1.98491642 0 0 Z " fill="#B7BFCE" transform="translate(215,268)"/>
<path d="M0 0 C0.33 0.66 0.66 1.32 1 2 C0.06421005 4.35981813 -0.93347808 6.69631264 -2 9 C-2.33 9 -2.66 9 -3 9 C-3.1875 5.625 -3.1875 5.625 -3 2 C-2.01 1.34 -1.02 0.68 0 0 Z " fill="#9DABC1" transform="translate(222,254)"/>
<path d="M0 0 C2.50037734 2.17424117 3.43628586 3.73045798 4 7 C3.01 7.33 2.02 7.66 1 8 C0.34 7.34 -0.32 6.68 -1 6 C-0.625 4 -0.625 4 0 2 C0 1.34 0 0.68 0 0 Z " fill="#AEB2C8" transform="translate(393,231)"/>
<path d="M0 0 C2 2 2 2 2 5 C0.625 6.6875 0.625 6.6875 -1 8 C-1.66 8 -2.32 8 -3 8 C-1.125 2.25 -1.125 2.25 0 0 Z " fill="#AEB2C6" transform="translate(200,75)"/>
</svg>
